<svg xmlns="http://www.w3.org/2000/svg" xmlns:xlink="http://www.w3.org/1999/xlink" width="144" zoomAndPan="magnify" viewBox="0 0 108 107.999999" height="144" preserveAspectRatio="xMidYMid meet" version="1.0"><defs><clipPath id="id1"><path d="M 20.460938 12.082031 L 104 12.082031 L 104 100.582031 L 20.460938 100.582031 Z M 20.460938 12.082031 " clip-rule="nonzero"/></clipPath></defs><path fill="rgb(100%, 100%, 100%)" d="M 108 54 C 108 55.769531 107.914062 57.53125 107.738281 59.292969 C 107.566406 61.054688 107.308594 62.800781 106.960938 64.535156 C 106.617188 66.269531 106.1875 67.984375 105.675781 69.675781 C 105.160156 71.367188 104.566406 73.03125 103.890625 74.664062 C 103.210938 76.300781 102.457031 77.894531 101.625 79.457031 C 100.789062 81.015625 99.882812 82.53125 98.898438 84 C 97.917969 85.472656 96.863281 86.890625 95.742188 88.257812 C 94.621094 89.625 93.433594 90.933594 92.183594 92.183594 C 90.933594 93.433594 89.625 94.621094 88.257812 95.742188 C 86.890625 96.863281 85.472656 97.917969 84 98.898438 C 82.53125 99.882812 81.015625 100.789062 79.457031 101.625 C 77.894531 102.457031 76.296875 103.210938 74.664062 103.890625 C 73.03125 104.566406 71.367188 105.160156 69.675781 105.675781 C 67.984375 106.1875 66.269531 106.617188 64.535156 106.960938 C 62.800781 107.308594 61.054688 107.566406 59.292969 107.738281 C 57.53125 107.914062 55.769531 108 54 108 C 52.230469 108 50.46875 107.914062 48.707031 107.738281 C 46.945312 107.566406 45.199219 107.308594 43.464844 106.960938 C 41.730469 106.617188 40.015625 106.1875 38.324219 105.675781 C 36.632812 105.160156 34.96875 104.566406 33.335938 103.890625 C 31.699219 103.210938 30.105469 102.457031 28.542969 101.625 C 26.984375 100.789062 25.46875 99.882812 24 98.898438 C 22.527344 97.917969 21.109375 96.863281 19.742188 95.742188 C 18.375 94.621094 17.066406 93.433594 15.816406 92.183594 C 14.566406 90.933594 13.378906 89.625 12.257812 88.257812 C 11.136719 86.890625 10.082031 85.472656 9.101562 84 C 8.117188 82.53125 7.210938 81.015625 6.375 79.457031 C 5.542969 77.894531 4.789062 76.300781 4.109375 74.664062 C 3.433594 73.03125 2.839844 71.367188 2.324219 69.675781 C 1.8125 67.984375 1.382812 66.269531 1.039062 64.535156 C 0.691406 62.800781 0.433594 61.054688 0.261719 59.292969 C 0.0859375 57.53125 0 55.769531 0 54 C 0 52.230469 0.0859375 50.46875 0.261719 48.707031 C 0.433594 46.945312 0.691406 45.199219 1.039062 43.464844 C 1.382812 41.730469 1.8125 40.015625 2.324219 38.324219 C 2.839844 36.632812 3.433594 34.96875 4.109375 33.335938 C 4.789062 31.699219 5.542969 30.105469 6.375 28.542969 C 7.210938 26.984375 8.117188 25.46875 9.101562 24 C 10.082031 22.527344 11.136719 21.109375 12.257812 19.742188 C 13.378906 18.375 14.566406 17.066406 15.816406 15.816406 C 17.066406 14.566406 18.375 13.378906 19.742188 12.257812 C 21.109375 11.136719 22.527344 10.082031 24 9.101562 C 25.46875 8.117188 26.984375 7.210938 28.542969 6.375 C 30.105469 5.542969 31.699219 4.789062 33.335938 4.109375 C 34.96875 3.433594 36.632812 2.839844 38.324219 2.324219 C 40.015625 1.8125 41.730469 1.382812 43.464844 1.039062 C 45.199219 0.691406 46.945312 0.433594 48.707031 0.261719 C 50.46875 0.0859375 52.230469 0 54 0 C 55.769531 0 57.53125 0.0859375 59.292969 0.261719 C 61.054688 0.433594 62.800781 0.691406 64.535156 1.039062 C 66.269531 1.382812 67.984375 1.8125 69.675781 2.324219 C 71.367188 2.839844 73.03125 3.433594 74.664062 4.109375 C 76.300781 4.789062 77.894531 5.542969 79.457031 6.375 C 81.015625 7.210938 82.53125 8.117188 84 9.101562 C 85.472656 10.082031 86.890625 11.136719 88.257812 12.257812 C 89.625 13.378906 90.933594 14.566406 92.183594 15.816406 C 93.433594 17.066406 94.621094 18.375 95.742188 19.742188 C 96.863281 21.109375 97.917969 22.527344 98.898438 24 C 99.882812 25.46875 100.789062 26.984375 101.625 28.542969 C 102.457031 30.105469 103.210938 31.699219 103.890625 33.335938 C 104.566406 34.96875 105.160156 36.632812 105.675781 38.324219 C 106.1875 40.015625 106.617188 41.730469 106.960938 43.464844 C 107.308594 45.199219 107.566406 46.945312 107.738281 48.707031 C 107.914062 50.46875 108 52.230469 108 54 Z M 108 54 " fill-opacity="1" fill-rule="nonzero"/><g clip-path="url(#id1)"><path fill="rgb(0%, 0%, 0%)" d="M 49.507812 100.023438 C 48.710938 99.808594 47.027344 98.953125 46.324219 99.074219 C 42.953125 100.605469 40.503906 99.566406 37.777344 97.117188 C 36.121094 97.359375 35.113281 97.667969 33.519531 97.023438 C 30.699219 95.03125 28.585938 92.859375 31.679688 90.011719 C 32.539062 89.492188 32.539062 89.492188 32.78125 89.183594 C 29.65625 83.667969 27.296875 77.976562 25.398438 71.941406 C 25.0625 70.253906 24.726562 68.574219 24.417969 66.914062 C 24.265625 61.21875 24.265625 61.21875 24.355469 58.859375 C 25.214844 52.828125 28.613281 47.625 29.105469 41.617188 C 28.613281 38.15625 27.695312 35.554688 24.691406 33.410156 C 23.375 32.796875 22.058594 32.15625 20.679688 31.664062 C 20.710938 31.511719 20.742188 31.390625 20.800781 31.265625 C 22.027344 30.410156 23.007812 29.277344 24.019531 28.171875 C 26.683594 23.640625 26.46875 18.800781 23.039062 14.726562 C 22.425781 14.238281 21.8125 13.746094 21.230469 13.257812 C 21.230469 13.167969 21.261719 13.105469 21.292969 13.042969 C 25.121094 12.09375 30.234375 14.605469 32.71875 17.425781 C 32.78125 17.425781 32.871094 17.453125 32.960938 17.484375 C 36.757812 15.925781 40.773438 16.046875 44.726562 17.269531 C 45.03125 17.453125 45.03125 17.453125 46.195312 17.789062 C 47.207031 18.316406 48.246094 18.863281 49.105469 19.566406 C 51.710938 16.382812 56.640625 14.699219 60.683594 15.25 C 60.773438 15.28125 60.871094 15.339844 60.960938 15.402344 C 60.898438 15.617188 60.871094 15.832031 60.835938 16.046875 C 58.449219 17.824219 57.164062 20.515625 56.519531 23.335938 C 56.671875 25.480469 56.976562 27.195312 57.742188 29.1875 C 58.507812 30.566406 59.398438 31.914062 59.828125 33.414062 C 59.640625 33.597656 59.640625 33.597656 56.488281 34.945312 C 52.75 37.179688 49.136719 38.894531 47.144531 42.90625 C 46.5 45.570312 46.960938 47.226562 47.820312 49.796875 C 49.289062 52.1875 50.792969 54.574219 52.382812 56.902344 C 58.421875 64.042969 68.648438 70.285156 69.203125 80.515625 C 69.113281 81.679688 69.050781 82.84375 68.988281 84.007812 C 69.171875 84.070312 69.386719 84.128906 69.601562 84.191406 C 74.960938 84.191406 78.484375 80.363281 79.859375 75.554688 C 79.921875 73.933594 79.953125 72.371094 79.800781 70.746094 C 79.15625 69.121094 78.511719 67.5 77.898438 65.875 C 76.1875 62.292969 75.019531 58.800781 74.285156 54.945312 C 74.285156 53.746094 74.316406 52.554688 74.347656 51.359375 C 74.867188 46.152344 77.746094 42.539062 81.605469 39.324219 C 85.867188 37.210938 90.550781 35.953125 95.269531 36.996094 C 100.84375 39.078125 104.980469 42.414062 103.445312 48.90625 C 101.792969 52.984375 98.636719 56.074219 94.074219 53.960938 C 93.550781 53.5625 93.0625 53.167969 92.570312 52.765625 C 91.527344 50.132812 94.011719 46.183594 91.039062 44.40625 C 87.914062 43.730469 86.046875 44.316406 83.441406 45.996094 C 80.839844 48.265625 79.917969 52.15625 80.46875 55.492188 C 81.785156 58.554688 81.785156 58.554688 85.464844 66.519531 C 86.042969 68.511719 86.042969 68.511719 86.535156 71.050781 C 86.535156 77.054688 85.246094 82.566406 81.050781 87.007812 C 80.070312 87.773438 79.089844 88.570312 78.109375 89.367188 C 76.976562 89.980469 75.875 90.589844 74.769531 91.203125 C 70.878906 92.675781 67.785156 93.472656 63.652344 93.6875 C 62.242188 95.246094 60.773438 96.503906 58.996094 97.636719 C 58.078125 98.035156 57.15625 98.433594 56.238281 98.863281 C 53.296875 99.71875 53.296875 99.71875 53.175781 99.839844 C 51.960938 99.898438 50.734375 99.964844 49.507812 100.023438 Z M 49.507812 100.023438 " fill-opacity="1" fill-rule="nonzero"/></g><path fill="rgb(0%, 29.019165%, 67.83905%)" d="M 44.421875 31.542969 C 42.984375 31.207031 41.515625 30.746094 40.441406 29.675781 C 40.472656 28.296875 41.054688 27.378906 41.945312 26.308594 C 42.035156 26.308594 42.160156 26.308594 42.28125 26.308594 C 43.109375 27.960938 43.6875 28.664062 45.4375 29.371094 C 45.589844 29.03125 44.945312 27.65625 44.855469 27.226562 C 44.855469 26.214844 44.792969 24.652344 45.898438 24.222656 C 47.859375 24.222656 50.617188 24.285156 51.472656 26.460938 C 51.070312 28.972656 49.757812 29.859375 47.675781 31.175781 C 46.570312 31.328125 45.527344 31.480469 44.421875 31.542969 Z M 44.421875 31.542969 " fill-opacity="1" fill-rule="nonzero"/><path fill="rgb(0%, 29.019165%, 67.83905%)" d="M 32.261719 29.886719 C 30.914062 29.644531 29.660156 28.203125 28.773438 27.253906 C 28.253906 25.722656 27.519531 23.976562 28.863281 22.628906 C 29.691406 22.628906 30.457031 22.722656 31.28125 22.90625 C 31.253906 22.996094 31.222656 23.089844 31.222656 23.210938 C 30.148438 24.4375 29.78125 25.203125 29.871094 26.886719 C 29.933594 26.886719 30.027344 26.917969 30.117188 26.949219 C 30.605469 25.691406 32.597656 24.253906 34.007812 25.171875 C 34.464844 26.183594 34.925781 27.222656 35.382812 28.265625 C 35.449219 29.980469 33.550781 29.855469 32.261719 29.886719 Z M 32.261719 29.886719 " fill-opacity="1" fill-rule="nonzero"/></svg>